<svg xmlns="http://www.w3.org/2000/svg" viewBox="0 0 512 512">
  <defs>
    <linearGradient id="panel" x1="70" y1="85" x2="442" y2="427" gradientUnits="userSpaceOnUse">
      <stop stop-color="#ff2ea8"/>
      <stop offset="0.48" stop-color="#5d4bff"/>
      <stop offset="1" stop-color="#00d4ff"/>
    </linearGradient>
    <linearGradient id="deep" x1="256" y1="94" x2="256" y2="438" gradientUnits="userSpaceOnUse">
      <stop stop-color="#1c1742" stop-opacity="0.22"/>
      <stop offset="0.62" stop-color="#050512" stop-opacity="0.56"/>
      <stop offset="1" stop-color="#02030b" stop-opacity="0.88"/>
    </linearGradient>
    <linearGradient id="red" x1="112" y1="143" x2="177" y2="257" gradientUnits="userSpaceOnUse">
      <stop stop-color="#ff5d80"/>
      <stop offset="0.52" stop-color="#ff143d"/>
      <stop offset="1" stop-color="#b90029"/>
    </linearGradient>
    <linearGradient id="white" x1="224" y1="148" x2="288" y2="262" gradientUnits="userSpaceOnUse">
      <stop stop-color="#ffffff"/>
      <stop offset="0.56" stop-color="#dce4f2"/>
      <stop offset="1" stop-color="#8d99ad"/>
    </linearGradient>
    <linearGradient id="green" x1="335" y1="143" x2="400" y2="257" gradientUnits="userSpaceOnUse">
      <stop stop-color="#72ff5c"/>
      <stop offset="0.55" stop-color="#27d71c"/>
      <stop offset="1" stop-color="#0a911a"/>
    </linearGradient>
    <linearGradient id="wave" x1="92" y1="321" x2="421" y2="321" gradientUnits="userSpaceOnUse">
      <stop stop-color="#ff2ed1"/>
      <stop offset="0.5" stop-color="#6bd7ff"/>
      <stop offset="1" stop-color="#00f5ff"/>
    </linearGradient>
    <filter id="shadow" x="-20%" y="-20%" width="140%" height="150%">
      <feDropShadow dx="0" dy="20" stdDeviation="18" flood-color="#000014" flood-opacity="0.56"/>
      <feDropShadow dx="0" dy="0" stdDeviation="20" flood-color="#1b8cff" flood-opacity="0.22"/>
    </filter>
    <filter id="softGlow" x="-45%" y="-45%" width="190%" height="190%">
      <feGaussianBlur stdDeviation="6" result="blur"/>
      <feMerge>
        <feMergeNode in="blur"/>
        <feMergeNode in="SourceGraphic"/>
      </feMerge>
    </filter>
  </defs>

  <rect width="512" height="512" rx="112" fill="#03040c"/>
  <rect x="49" y="50" width="414" height="414" rx="104" fill="url(#panel)" filter="url(#shadow)"/>
  <rect x="49" y="50" width="414" height="414" rx="104" fill="url(#deep)"/>
  <path d="M63 327c53 22 116 33 190 33 76 0 141-11 196-34v49c0 39-32 70-70 70H133c-39 0-70-31-70-70v-48Z" fill="#050615" opacity="0.62"/>
  <rect x="58" y="58" width="396" height="396" rx="96" fill="none" stroke="#ffffff" stroke-opacity="0.18" stroke-width="3"/>
  <rect x="62" y="62" width="388" height="388" rx="91" fill="none" stroke="#07133f" stroke-opacity="0.8" stroke-width="5"/>

  <g opacity="0.96">
    <rect x="129" y="102" width="20" height="183" rx="10" fill="#050716" stroke="#4f5a9a" stroke-width="2"/>
    <rect x="246" y="102" width="20" height="183" rx="10" fill="#050716" stroke="#4f5a9a" stroke-width="2"/>
    <rect x="363" y="102" width="20" height="183" rx="10" fill="#050716" stroke="#4f5a9a" stroke-width="2"/>

    <g stroke="#d9e6ff" stroke-linecap="round" stroke-width="3" opacity="0.82">
      <path d="M103 116h16M159 116h16M220 116h16M276 116h16M337 116h16M393 116h16"/>
      <path d="M93 159h27M158 159h28M220 159h28M264 159h28M337 159h28M382 159h28"/>
      <path d="M93 205h33M153 205h34M210 205h32M270 205h32M329 205h33M386 205h33"/>
      <path d="M104 251h15M159 251h16M220 251h16M276 251h16M337 251h16M393 251h16"/>
    </g>

    <g>
      <rect x="111" y="139" width="58" height="71" rx="9" fill="url(#red)" stroke="#ff91a8" stroke-width="2"/>
      <path d="M115 173h50" stroke="#fff3f6" stroke-width="4" stroke-linecap="round" opacity="0.9"/>
      <rect x="111" y="207" width="58" height="32" rx="8" fill="#cb092e" opacity="0.92"/>
    </g>
    <g>
      <rect x="227" y="171" width="58" height="71" rx="9" fill="url(#white)" stroke="#ffffff" stroke-width="2"/>
      <path d="M231 204h50" stroke="#182137" stroke-width="4" stroke-linecap="round" opacity="0.9"/>
      <rect x="227" y="239" width="58" height="32" rx="8" fill="#c4ccd9" opacity="0.94"/>
    </g>
    <g>
      <rect x="343" y="166" width="58" height="71" rx="9" fill="url(#green)" stroke="#a8ff9f" stroke-width="2"/>
      <path d="M347 199h50" stroke="#f1ffe9" stroke-width="4" stroke-linecap="round" opacity="0.9"/>
      <rect x="343" y="234" width="58" height="32" rx="8" fill="#18b51c" opacity="0.94"/>
    </g>
  </g>

  <path d="M88 323h38l7-6 7 12 8-24 8 40 9-63 9 86 9-105 11 98 9-63 8 40 8-30 8 20 10-7h18l8 6 8-14 8 31 9-59 9 88 10-119 10 104 9-69 8 43 8-28 8 18 8-7h18l8 6 9-20 8 35 9-63 10 89 9-103 10 89 9-55 8 33 8-21 8 14 9-5h37" fill="none" stroke="url(#wave)" stroke-width="8" stroke-linecap="round" stroke-linejoin="round" filter="url(#softGlow)"/>

  <g filter="url(#softGlow)">
    <circle cx="218" cy="397" r="15" fill="#ffca22"/>
    <circle cx="256" cy="397" r="15" fill="#4dff26"/>
    <circle cx="294" cy="397" r="15" fill="#26dfff"/>
  </g>
</svg>
